<?xml version="1.0" standalone="no"?><!DOCTYPE svg PUBLIC "-//W3C//DTD SVG 1.1//EN" "http://www.w3.org/Graphics/SVG/1.1/DTD/svg11.dtd"><svg t="1533516465215" class="icon" style="" viewBox="0 0 1024 1024" version="1.1" xmlns="http://www.w3.org/2000/svg" p-id="2238" xmlns:xlink="http://www.w3.org/1999/xlink" width="200" height="200"><defs><style type="text/css"></style></defs><path d="M813.35 62h-621.429c-87.065 0-87.065 85.715-87.065 85.715v728.572c0 0 0 85.715 88.392 85.715 0 0 491.528 0 514.286 0l190.178-150v-664.286c0 0-1.329-85.715-84.365-85.715zM854.857 790.571l-171.428 128.572c-21.428 0-471.428 0-471.428 0-64.286 0-64.286-64.286-64.286-64.286v-685.714c0 0 0-64.286 64.286-64.286 42.857 0 578.572 0 578.572 0 64.286 0 64.286 64.286 64.286 64.286v621.429z" p-id="2239"></path><path d="M254.858 533.428h492.857v42.857h-492.857v-42.857z" p-id="2240"></path><path d="M254.858 362h492.857v42.857h-492.857v-42.857z" p-id="2241"></path><path d="M254.858 190.572h235.714v42.857h-235.714v-42.857z" p-id="2242"></path><path d="M812 683.429h-192.858v192.858h42.857v-150h150z" p-id="2243"></path></svg>