<?xml version="1.0" standalone="no"?><!DOCTYPE svg PUBLIC "-//W3C//DTD SVG 1.1//EN" "http://www.w3.org/Graphics/SVG/1.1/DTD/svg11.dtd"><svg t="1533012859478" class="icon" style="" viewBox="0 0 1024 1024" version="1.1" xmlns="http://www.w3.org/2000/svg" p-id="2191" xmlns:xlink="http://www.w3.org/1999/xlink" width="200" height="200"><defs><style type="text/css"></style></defs><path d="M825.544 147.119H200.032c-28.788 0-52.126 23.337-52.126 52.126v625.508c0 28.791 23.338 52.129 52.126 52.129h625.512c28.787 0 52.126-23.34 52.126-52.129V199.245c0-28.789-23.34-52.126-52.126-52.126zM200.033 824.753V822.8c0.687 0.666 1.38 1.319 2.082 1.953h-2.082z m625.511 0l-202.61-213.726-100.049 86.895-150.136-139.013-150.126 139.013-22.589 25.803v-524.48h625.509v625.509zM660.475 510.499c53.796 0 97.448-43.728 97.448-97.598 0-53.913-43.652-97.619-97.448-97.619-53.823 0-97.451 43.705-97.451 97.619 0 53.875 43.628 97.598 97.451 97.598zM117.177 270.384v-52.126H52.126C23.337 218.258 0 241.595 0 270.384v480.229c0 28.791 23.337 52.129 52.126 52.129h65.051v-52.129H52.126V270.386h65.051zM906.82 750.946v52.126h65.053c28.788 0 52.126-23.338 52.126-52.126V270.715c0-28.788-23.338-52.128-52.126-52.128H906.82v52.128h65.053v480.231H906.82z" fill="" p-id="2192"></path></svg>