<?xml version="1.0" standalone="no"?><!DOCTYPE svg PUBLIC "-//W3C//DTD SVG 1.1//EN" "http://www.w3.org/Graphics/SVG/1.1/DTD/svg11.dtd"><svg t="1532994836113" class="icon" style="" viewBox="0 0 1024 1024" version="1.1" xmlns="http://www.w3.org/2000/svg" p-id="1029" xmlns:xlink="http://www.w3.org/1999/xlink" width="200" height="200"><defs><style type="text/css"></style></defs><path d="M291.599059 718.607059c0 31.924706-16.203294 47.947294-48.549647 47.947294H77.281882c-31.503059 0-47.224471-15.962353-47.22447-48.007529V289.370353C30.057412 257.084235 45.778824 240.941176 77.281882 240.941176h165.76753c32.346353 0 48.549647 16.143059 48.549647 48.368942v122.88H212.449882V308.525176H109.568v390.625883h103.002353V588.559059h79.088941v129.987765z m383.879529 47.947294H599.100235V507.301647c0-13.733647 1.566118-32.707765 4.698353-57.103059l-68.547764 268.348236h-40.478118L425.863529 450.198588c3.132235 24.816941 4.698353 43.851294 4.698353 57.103059v259.252706H354.123294V240.941176h75.113412l83.546353 290.514824c0.903529 3.192471 1.566118 11.083294 2.048 23.853176 0-5.541647 0.662588-13.552941 2.048-23.853176L600.425412 240.941176h75.113412v525.613177zM993.822118 718.607059c0 32.045176-16.082824 48.007529-48.188236 48.007529h-160.045176c-31.924706 0-47.887059-15.962353-47.887059-48.007529V593.317647h79.510588v107.218824h97.15953V597.232941l-159.322353-149.082353a55.536941 55.536941 0 0 1-17.28753-41.984v-116.85647c0-32.286118 15.962353-48.368941 47.887059-48.368942h159.984941c32.165647 0 48.248471 15.902118 48.248471 47.706353v117.519059h-79.510588V307.079529h-97.15953v95.051295l159.322353 148.48c11.504941 10.782118 17.287529 24.997647 17.28753 42.646588v125.289412z" p-id="1030"></path></svg>