<?xml version="1.0" standalone="no"?><!DOCTYPE svg PUBLIC "-//W3C//DTD SVG 1.1//EN" "http://www.w3.org/Graphics/SVG/1.1/DTD/svg11.dtd"><svg t="1528195475070" class="icon" style="" viewBox="0 0 1024 1024" version="1.1" xmlns="http://www.w3.org/2000/svg" p-id="2261" xmlns:xlink="http://www.w3.org/1999/xlink" width="200" height="200"><defs><style type="text/css"></style></defs><path d="M509.910204 509.910204m-509.910204 0a509.910204 509.910204 0 1 0 1019.820408 0 509.910204 509.910204 0 1 0-1019.820408 0Z" fill="#2966AA" p-id="2262"></path><path d="M397.061224 196.440816c-14.628571-45.97551 10.44898-94.040816 56.42449-106.579592 33.436735-10.44898 68.963265 0 91.951021 27.167347 0 0 39.706122-14.628571 54.334694-20.897959s18.808163 6.269388 6.269387 18.808164-41.795918 39.706122-206.889796 85.681632l-2.089796-4.179592z m6.269388 16.718368l8.359184 27.167347c14.628571 45.97551 62.693878 71.053061 106.579592 56.424489 45.97551-14.628571 71.053061-62.693878 56.42449-106.579591L564.244898 160.914286c-77.322449 29.257143-77.322449 29.257143-160.914286 52.244898z m468.114286 463.934694c-217.338776 104.489796-562.155102 129.567347-741.877551 48.065306H125.387755c-4.179592 0-6.269388 2.089796-8.359184 6.269387l-6.269387 14.628572v4.179592c0 4.179592 2.089796 6.269388 4.179592 8.359183 294.661224 181.812245 649.926531 54.334694 787.853061-4.179591 2.089796-2.089796 6.269388-4.179592 6.269387-8.359184v-4.179592l-25.077551-58.514286c-2.089796-2.089796-4.179592-6.269388-8.359183-6.269387-2.089796-2.089796-2.089796 0-4.179592 0M440.946939 606.040816c29.257143-25.077551 64.783673-41.795918 106.579592-41.795918 77.322449 0 140.016327 54.334694 154.644898 127.477551 2.089796 6.269388 8.359184 10.44898 14.628571 10.44898 2.089796 0 6.269388 0 8.359184-2.089796l114.938775-79.412245c4.179592-4.179592 8.359184-10.44898 8.359184-16.718368 0-10.44898-8.359184-20.897959-20.897959-20.897959h-4.179592l-58.514286 14.628572h-2.089796c-4.179592 0-6.269388-2.089796-8.359183-6.269388-27.167347-71.053061-96.130612-121.208163-175.542858-121.208163 10.44898-45.97551-4.179592-94.040816-4.179591-94.040817 83.591837-16.718367 146.285714-87.771429 150.465306-173.453061 0-10.44898-8.359184-20.897959-20.89796-20.897959-8.359184 0-14.628571 4.179592-18.808163 10.448979-27.167347 71.053061-96.130612 119.118367-175.542857 119.118368h-117.028571c-79.412245 0-146.285714 48.065306-175.542857 117.028571-2.089796 2.089796-2.089796 4.179592-2.089796 8.359184 0 10.44898 8.359184 20.897959 20.897959 20.897959 8.359184 0 16.718367-4.179592 18.808163-12.538775 14.628571-33.436735 50.155102-58.514286 89.861225-58.514286h37.616326c8.359184 0 14.628571 6.269388 14.628571 14.628571v68.963266c0 54.334694-43.885714 98.220408-98.220408 98.220408-31.346939 0-58.514286-14.628571-75.232653-35.526531-2.089796-4.179592-6.269388-6.269388-12.538775-6.269388s-12.538776 4.179592-14.628572 8.359184l-41.795918 98.220408c-2.089796 2.089796-2.089796 6.269388-2.089796 8.359184 0 10.44898 8.359184 20.897959 20.897959 20.897959 6.269388 0 10.44898-2.089796 14.628572-6.269388l18.808163-20.897959c2.089796-2.089796 4.179592-2.089796 6.269388-2.089796 2.089796 0 4.179592 0 4.179592 2.089796 25.077551 12.538776 54.334694 20.897959 85.681632 20.897959 58.514286 0 104.489796-18.808163 137.926531-50.155102" fill="#FFFFFF" p-id="2263"></path><path d="M599.771429 96.130612c-14.628571 4.179592-54.334694 20.897959-54.334694 20.897959s0 18.808163-146.285715 83.591837C564.244898 154.644898 593.502041 127.477551 606.040816 114.938776c12.538776-14.628571 8.359184-25.077551-6.269387-18.808164z" fill="#ECA537" p-id="2264"></path></svg>