<?xml version="1.0" standalone="no"?><!DOCTYPE svg PUBLIC "-//W3C//DTD SVG 1.1//EN" "http://www.w3.org/Graphics/SVG/1.1/DTD/svg11.dtd"><svg t="1530003009268" class="icon" style="" viewBox="0 0 1024 1024" version="1.1" xmlns="http://www.w3.org/2000/svg" p-id="2112" xmlns:xlink="http://www.w3.org/1999/xlink" width="200" height="200"><defs><style type="text/css"></style></defs><path d="M972.7097 692.780247l0-107.27619-81.99224-13.725573c-3.250794-10.11358-7.585185-19.865961-12.280776-29.257143l48.400705-67.544268-75.851852-75.851852-67.544268 48.400705c-9.391182-4.695591-19.143563-9.029982-29.618342-12.280776l-13.725573-81.99224-107.63739 0-13.725573 81.99224c-10.11358 3.250794-19.865961 7.585185-29.618342 12.280776l-67.544268-48.400705-75.851852 75.851852 48.400705 67.544268c-4.695591 9.391182-8.668783 19.143563-12.280776 29.257143l-81.99224 13.725573 0 107.27619 82.353439 13.725573c3.250794 10.11358 7.223986 19.865961 12.280776 29.257143l-48.400705 67.905467 75.851852 75.851852 67.905467-48.761905c9.391182 4.695591 18.782363 8.668783 28.895944 11.919577l13.725573 82.353439 107.27619 0 13.725573-82.353439c10.11358-3.250794 19.504762-7.223986 28.895944-11.919577l67.905467 48.761905 75.851852-75.851852-48.400705-67.905467c4.695591-9.391182 8.668783-19.143563 12.280776-29.257143L972.7097 692.780247 972.7097 692.780247zM686.27866 766.464903c-70.433862 0-127.142152-57.069489-127.142152-127.142152 0-70.433862 57.069489-127.142152 127.142152-127.142152 70.433862 0 127.142152 57.069489 127.142152 127.142152S756.712522 766.464903 686.27866 766.464903L686.27866 766.464903zM686.27866 766.464903" p-id="2113"></path><path d="M613.316402 209.495591l-211.301587 158.56649L190.713228 209.495591c-9.752381-7.585185-24.200353-5.417989-31.424339 4.334392C151.703704 223.943563 153.870899 238.030335 163.62328 245.61552l224.665961 168.680071c0 0 0 0 0 0 0.361199 0.361199 1.083598 0.722399 1.444797 1.083598 0 0 0 0 0 0 0.361199 0.361199 1.083598 0.722399 1.444797 0.722399 0 0 0.361199 0 0.361199 0 0.361199 0.361199 1.083598 0.361199 1.444797 0.722399 0 0 0.361199 0 0.361199 0 0.361199 0 0.722399 0.361199 1.083598 0.361199 0.361199 0 0.361199 0 0.722399 0.361199 0.361199 0 0.722399 0 0.722399 0.361199 0.361199 0 0.361199 0 0.722399 0 0.361199 0 1.083598 0.361199 1.444797 0.361199 0.361199 0 0.361199 0 0.722399 0 0.361199 0 0.722399 0 1.083598 0 0.361199 0 0.361199 0 0.722399 0 0.361199 0 1.083598 0 1.444797 0 0 0 0 0 0 0l0 0 0 0c0 0 0 0 0 0 0.361199 0 1.083598 0 1.444797 0 0.361199 0 0.361199 0 0.722399 0 0.361199 0 0.722399 0 1.083598 0 0.361199 0 0.361199 0 0.722399 0 0.361199 0 1.083598 0 1.444797-0.361199 0.361199 0 0.361199 0 0.722399 0 0.361199 0 0.722399 0 0.722399-0.361199 0.361199 0 0.361199 0 0.722399-0.361199 0.361199 0 0.722399-0.361199 1.083598-0.361199 0 0 0 0 0.361199 0 0.361199-0.361199 1.083598-0.361199 1.444797-0.722399 0 0 0.361199 0 0.361199 0 0.361199-0.361199 1.083598-0.361199 1.444797-0.722399 0 0 0 0 0 0 0.361199-0.361199 1.083598-0.722399 1.444797-1.083598 0 0 0 0 0 0L640.406349 245.61552c9.752381-7.585185 11.919577-21.671958 4.334392-31.424339C637.516755 204.077601 623.429982 201.910406 613.316402 209.495591L613.316402 209.495591zM613.316402 209.495591" p-id="2114"></path><path d="M324.718166 573.58448 123.168959 573.58448c-7.223986 0-13.725573-2.889594-19.143563-7.946384-5.05679-5.05679-7.946384-11.919577-7.946384-19.143563L96.079012 170.486067c0-7.223986 2.889594-13.725573 7.946384-19.143563 5.05679-5.05679 11.919577-7.946384 19.143563-7.946384l545.772134 0c7.223986 0 13.725573 2.889594 19.143563 7.946384 5.05679 5.05679 7.946384 11.919577 7.946384 19.143563l0 110.888183 44.788713 0L740.819753 170.486067c0-39.731922-32.507937-71.87866-71.87866-71.87866L123.168959 98.607407c-39.731922 0-71.87866 32.507937-71.87866 71.87866l0 376.008466c0 39.731922 32.507937 71.87866 71.87866 71.87866l201.549206 0L324.718166 573.58448z" p-id="2115"></path></svg>