<?xml version="1.0" standalone="no"?><!DOCTYPE svg PUBLIC "-//W3C//DTD SVG 1.1//EN" "http://www.w3.org/Graphics/SVG/1.1/DTD/svg11.dtd"><svg t="1527848316096" class="icon" style="" viewBox="0 0 1024 1024" version="1.1" xmlns="http://www.w3.org/2000/svg" p-id="2190" xmlns:xlink="http://www.w3.org/1999/xlink" width="200" height="200"><defs><style type="text/css"></style></defs><path d="M792.29952 1005.5424 241.28512 1005.5424c-64.6912 0-91.62752-46.41792-96.86016-70.96832-2.86208-16.09216-66.70336-373.90848-79.9232-472.0896-4.81792-35.87584 1.89952-64.51712 19.91168-85.13024 17.13152-19.55328 44.14976-30.336 76.09344-30.336 7.38304 0 13.25056 0.57856 16.44544 0.98816l679.68512 0c3.18976-0.41472 9.0624-0.98816 16.44032-0.98816 31.9488 0 58.96704 10.78272 76.06784 30.34624 18.04288 20.60288 24.73472 49.24416 19.9168 85.12-13.19424 98.17088-77.03552 456.00256-79.73376 471.18848C883.93216 959.11936 856.99584 1005.5424 792.29952 1005.5424L792.29952 1005.5424M160.50688 403.41504c-8.94976 0-25.20064 1.44896-33.62304 11.06944-8.53504 9.7536-8.23808 27.39712-6.47168 40.48896 13.0304 96.97792 78.70976 465.0752 79.37536 468.77696 1.31584 4.87936 9.0624 25.37984 41.50272 25.37984l551.0144 0c35.70176 0 41.45664-25.21088 41.67168-26.28096 0.50176-2.80064 66.18112-370.89792 79.1808-467.87584 1.77152-13.09184 2.06848-30.73536-6.44096-40.48896-8.43264-9.6256-24.6784-11.06944-33.62816-11.06944-5.37088 0-9.16992 0.50688-9.91232 0.62464-1.4592 0.2304-3.09248 0.36864-4.55168 0.36864L174.96576 404.40832c-1.56672 0-3.13856-0.13824-4.70528-0.39936C169.70752 403.93216 165.87776 403.41504 160.50688 403.41504L160.50688 403.41504M160.50688 403.41504 160.50688 403.41504zM239.80032 553.4976c0 15.43168 6.35392 30.76096 17.26464 41.67168 10.9056 10.91072 26.24512 17.25952 41.67168 17.25952s30.76096-6.3488 41.67168-17.25952 17.25952-26.24 17.25952-41.67168-6.3488-30.76096-17.25952-41.67168-26.24512-17.25952-41.67168-17.25952-30.76608 6.3488-41.6768 17.25952C246.15936 522.74176 239.80032 538.07104 239.80032 553.4976L239.80032 553.4976M239.80032 553.4976 239.80032 553.4976zM675.92192 553.4976c0 15.43168 6.3488 30.76096 17.25952 41.67168s26.24 17.25952 41.67168 17.25952 30.76608-6.3488 41.67168-17.25952c10.91072-10.91072 17.25952-26.24 17.25952-41.67168s-6.3488-30.76096-17.25952-41.67168c-10.9056-10.91072-26.24-17.25952-41.67168-17.25952s-30.76096 6.3488-41.67168 17.25952S675.92192 538.07104 675.92192 553.4976L675.92192 553.4976M675.92192 553.4976 675.92192 553.4976zM768.26112 308.63872c-15.5904 0-28.20096-12.63104-28.20096-28.20608 0-113.34656-100.16768-205.568-223.27296-205.568-123.1104 0-223.25248 92.22144-223.25248 205.568 0 15.57504-12.61568 28.20608-28.20096 28.20608-15.5904 0-28.20608-12.63104-28.20608-28.20608 0-144.45568 125.45024-261.96992 279.65952-261.96992 154.20416 0 279.67488 117.51424 279.67488 261.96992C796.46208 296.00768 783.85152 308.63872 768.26112 308.63872L768.26112 308.63872M768.26112 308.63872 768.26112 308.63872z" p-id="2191"></path></svg>