<?xml version="1.0" standalone="no"?><!DOCTYPE svg PUBLIC "-//W3C//DTD SVG 1.1//EN" "http://www.w3.org/Graphics/SVG/1.1/DTD/svg11.dtd"><svg t="1527671908418" class="icon" style="" viewBox="0 0 1024 1024" version="1.1" xmlns="http://www.w3.org/2000/svg" p-id="3084" xmlns:xlink="http://www.w3.org/1999/xlink" width="200" height="200"><defs><style type="text/css"></style></defs><path d="M144.093281 889.172245l227.037876-91.913363L235.977991 656.723126 144.093281 889.172245 144.093281 889.172245 144.093281 889.172245zM630.634446 262.067694 263.009647 629.692492l135.150096 135.149073L765.784542 397.21779 630.634446 262.067694 630.634446 262.067694 630.634446 262.067694zM479.248573 343.157547l-54.058197-54.060243-91.88778 97.324606-37.852096-32.4429 97.296977-97.324606L273.832134 132.326794 133.269771 267.477914l210.831776 210.828706L479.248573 343.157547 479.248573 343.157547 479.248573 343.157547zM219.771891 283.686061c-16.235776-16.208147-16.235776-43.237757 0-64.857147 16.2061-16.235776 48.649-16.235776 64.8551 0 16.234753 16.2061 16.234753 48.649 0 64.857147C268.420891 305.33001 241.391281 305.33001 219.771891 283.686061L219.771891 283.686061 219.771891 283.686061zM890.115222 272.89018 754.963079 137.738038l-97.296977 97.298 135.149073 135.15112L890.115222 272.89018 890.115222 272.89018 890.115222 272.89018zM749.549789 808.081369l-37.826514-37.85312 97.300047-91.886757-43.239803-48.651047-97.324606 97.299023-37.826514-37.852096 97.299023-97.300047-43.23878-43.23571L549.542546 689.137373l200.007243 200.030779 135.150096-140.561339-37.827537-37.826514L749.549789 808.081369 749.549789 808.081369 749.549789 808.081369zM960.399985 885.600907c0 40.792055-33.06507 73.862241-73.857125 73.862241l-749.70482 0c-40.792055 0-73.862241-33.069163-73.862241-73.862241L62.975798 135.89711c0-40.793078 33.070186-73.862241 73.862241-73.862241l749.70482 0c40.792055 0 73.857125 33.069163 73.857125 73.862241L960.399985 885.600907 960.399985 885.600907z" p-id="3085"></path></svg>