<?xml version="1.0" standalone="no"?><!DOCTYPE svg PUBLIC "-//W3C//DTD SVG 1.1//EN" "http://www.w3.org/Graphics/SVG/1.1/DTD/svg11.dtd"><svg t="1528883453433" class="icon" style="" viewBox="0 0 1024 1024" version="1.1" xmlns="http://www.w3.org/2000/svg" p-id="2106" xmlns:xlink="http://www.w3.org/1999/xlink" width="200" height="200"><defs><style type="text/css"></style></defs><path d="M837.139 77.042h-59.605c-16.486 0-35.508 10.144-35.508 26.631 0 16.486 19.022 32.973 35.508 32.973h59.605c35.507 0 59.604 24.096 59.604 59.604v686.069c0 35.508-24.097 59.604-59.604 59.604h-641.687c-35.508 0-74.82-24.096-74.82-59.604v-686.068c0-35.508 24.096-59.604 59.604-59.604h74.82c16.485 0 22.827-16.487 22.827-32.973 0-16.487-6.341-26.631-22.827-26.631h-74.819c-83.7-0.001-119.209 51.994-119.209 120.475v678.462c0 73.552 44.385 125.545 125.546 125.545h644.221c81.166 0 125.551-43.118 125.551-125.545v-678.462c0.001-68.481-41.849-120.476-119.206-120.476v0zM255.056 345.893c0 16.486 13.952 30.433 30.433 30.433h447.66c16.486 0 30.438-13.947 30.438-30.433 0-16.487-13.952-30.438-30.438-30.438h-447.66c-16.481 0-30.433 13.951-30.433 30.438v0zM731.882 480.317h-446.393c-16.481 0-30.433 13.951-30.433 30.438 0 16.482 13.952 30.433 30.433 30.433h447.66c16.486 0 30.438-13.951 30.438-30.433-1.267-17.755-15.219-30.438-31.706-30.438v0zM731.882 659.124h-446.393c-16.481 0-30.433 13.952-30.433 30.439 0 16.485 13.952 30.432 30.433 30.432h447.66c16.486 0 30.438-13.947 30.438-30.432-1.267-17.756-15.219-30.439-31.706-30.439v0zM405.966 151.866h207.979c24.097 0 44.384-24.096 44.384-51.996 0-27.898-20.289-51.995-45.652-51.995h-206.71c-25.363 0-45.652 24.096-45.652 51.995 0 27.9 20.288 51.996 45.652 51.996v0z" p-id="2107"></path></svg>