<?xml version="1.0" standalone="no"?><!DOCTYPE svg PUBLIC "-//W3C//DTD SVG 1.1//EN" "http://www.w3.org/Graphics/SVG/1.1/DTD/svg11.dtd"><svg t="1528157600112" class="icon" style="" viewBox="0 0 1026 1024" version="1.1" xmlns="http://www.w3.org/2000/svg" p-id="1921" xmlns:xlink="http://www.w3.org/1999/xlink" width="200.390625" height="200"><defs><style type="text/css"></style></defs><path d="M536.257394 774.048l-60.462-2.15-0.973-0.117c-67.475-7.604-131.179-31.351-184.215-68.654-57.487-40.428-99.208-94.997-120.659-157.816-26.549-77.581-23.25-163.973-20.096-247.537 1.002-26.105 1.915-50.798 1.915-74.722 0-30.644 25.989-56.427 56.368-55.66 47.673 1.237 85.478 12.375 125.756 30.556 11.404-29.525 27.521-56.072 48.028-79.262 47.733-53.92 89.339-80.145 127.2-80.145 24.458 0 51.152 10.843 79.322 32.176 19.507 14.762 39.482 34.592 54.804 54.421 18.535 23.955 32.266 49.089 41.664 76.138 43.549-18.386 86.098-32.382 136.69-33.885 0.529 0 1.063 0 1.59 0 14.291 0 27.933 5.745 38.334 16.206 10.549 10.549 16.561 24.958 16.529 39.542-0.116 44.612-0.941 89.869-1.766 133.654-0.178 9.93-0.354 19.89-0.531 29.818-0.118 7.073-0.176 14.409-0.207 21.48-0.294 41.722-0.56 84.83-14.791 126.525-46.494 136.54-176.496 232.743-323.438 239.373L536.257394 774.048 536.257394 774.048zM479.655394 720.186l56.338 2.004c125.403-6.099 236.104-88.071 275.675-204.283 11.522-33.738 11.786-72.601 12.051-110.168 0.031-7.221 0.09-14.674 0.207-22.011 0.178-9.989 0.355-19.948 0.561-29.908 0.796-43.578 1.621-88.631 1.74-132.828 0-0.708-0.442-1.857-1.416-2.83-0.706-0.707-1.354-0.972-1.619-0.972-51.771 1.533-94.318 18.858-144.555 41.37l-29.083 13.023-6.836-31.145c-6.837-31.175-20.094-59.195-40.514-85.625-24.899-32.206-65.975-66.444-93.082-66.444-12.285 0-40.13 8.132-88.364 62.643-21.775 24.603-37.391 54.127-46.378 87.747l-8.221 30.792-28.463-14.32c-45.995-23.131-82.149-36.773-130.914-38.04l0 0c-1.119 0-3.152 2.004-3.152 3.861 0 24.927-0.972 50.061-1.975 76.697-2.976 78.819-6.07 160.35 17.326 228.824C253.923394 630.787 356.167394 705.925 479.655394 720.186L479.655394 720.186zM393.969394 941.998c-9.015 0-17.768-4.714-22.54-13.084-32.971-57.722-86.597-132.06-154.691-158.464-27.698-10.725-65.002-12.403-97.354-4.418-20.035 4.95-55.688 18.208-69.567 51.238-5.538 13.201-20.714 19.42-33.914 13.88-13.202-5.542-19.418-20.715-13.878-33.916 16.766-39.981 54.04-68.918 104.925-81.5 42.783-10.578 90.812-8.189 128.498 6.394 37.009 14.35 72.956 40.367 106.899 77.377 26.104 28.433 51.033 63.35 74.104 103.715 7.101 12.436 2.77 28.261-9.665 35.36C402.723394 940.88 398.301394 941.998 393.969394 941.998L393.969394 941.998zM631.871394 941.998c-4.36 0-8.751-1.118-12.815-3.418-12.437-7.1-16.768-22.925-9.666-35.36 23.072-40.395 47.999-75.281 74.104-103.715 33.946-37.008 69.893-63.027 106.871-77.377 37.687-14.584 85.743-16.972 128.528-6.394 50.885 12.582 88.16 41.519 104.926 81.5 5.537 13.201-0.679 28.374-13.879 33.916-13.201 5.54-28.374-0.679-33.914-13.88-13.878-33.03-49.531-46.289-69.568-51.238-32.352-7.985-69.654-6.307-97.353 4.418-68.093 26.403-121.719 100.742-154.69 158.464C649.639394 937.285 640.888394 941.998 631.871394 941.998L631.871394 941.998zM512.921394 985.46c-14.319 0-25.929-11.58-25.929-25.9l0-211.44c0-14.32 11.61-25.9 25.929-25.9 14.32 0 25.93 11.58 25.93 25.9l0 211.44C538.851394 973.88 527.241394 985.46 512.921394 985.46L512.921394 985.46z" p-id="1922"></path></svg>