<?xml version="1.0" standalone="no"?><!DOCTYPE svg PUBLIC "-//W3C//DTD SVG 1.1//EN" "http://www.w3.org/Graphics/SVG/1.1/DTD/svg11.dtd"><svg t="1528888466135" class="icon" style="" viewBox="0 0 1024 1024" version="1.1" xmlns="http://www.w3.org/2000/svg" p-id="1944" xmlns:xlink="http://www.w3.org/1999/xlink" width="200" height="200"><defs><style type="text/css"></style></defs><path d="M894.922714 707.97644 529.248338 859.296821c-4.594645 1.973958-9.674337 3.087315-15.004739 3.087315s-10.410094-1.113357-15.004739-3.087315L133.547087 707.97644c-13.856589-5.635347-23.63735-19.241226-23.63735-35.123962L109.909737 91.62172c0-20.927635 16.978696-37.906332 37.906332-37.906332 5.132904 0 10.015098 1.041726 14.483876 2.871397l0.01842 0 0.053212 0.035816c0.107447 0.036839 0.233314 0.090051 0.340761 0.144286L514.243599 202.218608 865.774861 56.766888c0.106424-0.054235 0.215918-0.107447 0.323365-0.144286l0.071631-0.035816 0 0c4.486174-1.830695 9.367345-2.871397 14.501272-2.871397 20.927635 0 37.906332 16.978696 37.906332 37.906332l0 581.229734C918.57746 688.735214 908.814096 702.341093 894.922714 707.97644zM476.337267 268.590248 185.7224 148.338467l0 499.17081 290.614867 120.252805L476.337267 268.590248zM842.764797 148.338467 552.14993 268.590248l0 499.171833 290.614867-120.252805L842.764797 148.338467zM612.276333 322.470389l138.989541-63.176878 0 0c4.773723-2.189875 10.085706-3.41068 15.686261-3.41068 20.927635 0 37.906332 16.978696 37.906332 37.906332 0 15.3455-9.116635 28.53694-22.220071 34.495652l0 0.01842-138.989541 63.176878 0 0c-4.792143 2.171456-10.085706 3.39226-15.686261 3.39226-20.927635 0-37.906332-16.978696-37.906332-37.906332C590.056262 341.638961 599.17392 328.429101 612.276333 322.470389zM612.276333 461.45993l0-0.01842 138.989541-63.159482 0 0c4.773723-2.189875 10.085706-3.41068 15.686261-3.41068 20.927635 0 37.906332 16.978696 37.906332 37.906332 0 15.3455-9.116635 28.53694-22.220071 34.514071l-138.989541 63.176878 0 0c-4.792143 2.171456-10.085706 3.39226-15.686261 3.39226-20.927635 0-37.906332-16.978696-37.906332-37.906332C590.056262 480.628502 599.17392 467.418642 612.276333 461.45993zM612.276333 600.450495 612.276333 600.450495l138.989541-63.176878 0 0c4.773723-2.189875 10.085706-3.41068 15.686261-3.41068 20.927635 0 37.906332 16.978696 37.906332 37.906332 0 15.3455-9.116635 28.537963-22.220071 34.495652l0 0.01842-138.989541 63.176878 0 0c-4.792143 2.171456-10.085706 3.39226-15.686261 3.39226-20.927635 0-37.906332-16.978696-37.906332-37.906332C590.056262 619.618043 599.17392 606.408183 612.276333 600.450495zM261.535063 255.882831c5.599532 0 10.894118 1.220804 15.687284 3.41068l0 0 138.989541 63.176878 0 0c13.102413 5.958712 22.219047 19.168572 22.219047 34.495652 0 20.927635-16.978696 37.906332-37.906332 37.906332-5.599532 0-10.912537-1.220804-15.687284-3.39226l0 0-138.989541-63.176878 0-0.01842c-13.102413-5.958712-22.219047-19.150152-22.219047-34.495652C223.628732 272.861528 240.607428 255.882831 261.535063 255.882831zM261.535063 394.872373c5.599532 0 10.894118 1.220804 15.687284 3.41068l0 0 138.989541 63.159482 0 0.01842c13.102413 5.958712 22.219047 19.168572 22.219047 34.495652 0 20.927635-16.978696 37.906332-37.906332 37.906332-5.599532 0-10.912537-1.220804-15.687284-3.39226l0 0-138.989541-63.176878 0 0c-13.102413-5.977132-22.219047-19.168572-22.219047-34.514071C223.628732 411.851069 240.607428 394.872373 261.535063 394.872373zM261.535063 533.861914c5.599532 0 10.894118 1.220804 15.687284 3.41068l0 0 138.989541 63.176878 0 0c13.102413 5.957689 22.219047 19.167548 22.219047 34.495652 0 20.927635-16.978696 37.906332-37.906332 37.906332-5.599532 0-10.912537-1.220804-15.687284-3.39226l0 0-138.989541-63.176878 0-0.01842c-13.102413-5.957689-22.219047-19.150152-22.219047-34.495652C223.628732 550.84061 240.607428 533.861914 261.535063 533.861914z" p-id="1945"></path></svg>