<?xml version="1.0" standalone="no"?><!DOCTYPE svg PUBLIC "-//W3C//DTD SVG 1.1//EN" "http://www.w3.org/Graphics/SVG/1.1/DTD/svg11.dtd"><svg t="1529220942547" class="icon" style="" viewBox="0 0 1024 1024" version="1.1" xmlns="http://www.w3.org/2000/svg" p-id="2643" xmlns:xlink="http://www.w3.org/1999/xlink" width="200" height="200"><defs><style type="text/css"></style></defs><path d="M642.438956 772.516584H182.831334c-8.671842 0-15.898377-7.226535-15.898377-15.898377V318.690191l287.61609 287.61609c12.285109 12.285109 28.90614 19.511644 46.972477 19.511644s34.687368-7.226535 46.972477-19.511644l294.119972-294.119972v256.54199c0 13.730416 11.562456 25.292872 25.292872 25.292872s25.292872-11.562456 25.292873-25.292872V297.733239c0-36.855328-29.628793-66.484121-66.484122-66.484121H182.831334c-36.855328 0-66.484121 29.628793-66.484122 66.484121v458.884968c0 36.855328 29.628793 66.484121 66.484122 66.484122h459.607622c13.730416 0 25.292872-11.562456 25.292872-25.292872s-11.562456-25.292872-25.292872-25.292873z m158.261115-489.959068L512.361327 570.173606c-5.781228 5.781228-16.62103 5.781228-22.402259 0L202.342978 282.557516h598.357093z" fill="" p-id="2644"></path><path d="M750.83698 799.254764m-28.183487 0a28.183486 28.183486 0 1 0 56.366973 0 28.183486 28.183486 0 1 0-56.366973 0Z" fill="" p-id="2645"></path><path d="M862.125618 798.53211m-28.183487 0a28.183486 28.183486 0 1 0 56.366973 0 28.183486 28.183486 0 1 0-56.366973 0Z" fill="" p-id="2646"></path><path d="M865.738885 685.798165m-28.183486 0a28.183486 28.183486 0 1 0 56.366972 0 28.183486 28.183486 0 1 0-56.366972 0Z" fill="" p-id="2647"></path></svg>