<?xml version="1.0" standalone="no"?><!DOCTYPE svg PUBLIC "-//W3C//DTD SVG 1.1//EN" "http://www.w3.org/Graphics/SVG/1.1/DTD/svg11.dtd"><svg t="1532571545422" class="icon" style="" viewBox="0 0 1024 1024" version="1.1" xmlns="http://www.w3.org/2000/svg" p-id="2037" xmlns:xlink="http://www.w3.org/1999/xlink" width="200" height="200"><defs><style type="text/css"></style></defs><path d="M793.270035 574.183248c20.511149-41.156352 23.741727-85.658915 23.741727-134.610814 0-170.908508-131.935891-311.067688-305.300334-311.067688-173.368536 0-305.309544 140.137691-305.309544 311.067688 0 48.957015 3.230578 93.480045 23.741727 134.63742l-115.909893 199.467961c0 0 79.3093 29.187763 161.2925 46.086641 54.670134 60.863183 99.06525 126.263705 99.06525 126.263705l108.314914-206.912513c6.638187 0.413416 16.294105 0 23.037692 0 6.745634 0 16.427134 0.413416 23.043832 0l115.210975 195.859783c0 0 49.040926-54.323233 103.688547-115.211998 81.983199-16.893762 161.2925-46.086641 161.2925-46.086641L793.270035 574.183248 793.270035 574.183248 793.270035 574.183248zM367.694383 865.850074c0 0-38.424124-49.361221-75.314313-85.252663-52.323693-14.878872-120.541377-29.957289-120.541377-29.957289l80.644715-138.249691c42.717917 55.749722 112.862487 108.394732 183.780677 125.672234L367.694383 865.850074 367.694383 865.850074zM505.944074 704.553481c-67.488067 0-258.462586-40.35101-264.980024-264.981047-4.098341-141.254118 124.028804-276.504498 264.980024-276.504498 140.947126 0 275.69097 135.198192 276.504498 276.504498C783.681656 653.224442 573.436234 704.553481 505.944074 704.553481L505.944074 704.553481zM644.198881 865.850074l-69.12945-126.734426c70.923306-17.276479 153.145959-70.976518 195.859783-126.731356l80.644715 138.254807c-0.022513-0.031722-68.217684 15.056927-120.541377 29.957289L644.198881 865.850074 644.198881 865.850074zM511.711428 256.316713c-98.775654 0-178.842201 80.110549-178.842201 178.935322s80.065524 178.935322 178.842201 178.935322c98.766444 0 178.832991-80.110549 178.832991-178.935322S610.477872 256.316713 511.711428 256.316713L511.711428 256.316713 511.711428 256.316713zM517.468548 577.822125c-44.373627 0-142.378731-17.561981-149.775188-149.769049-3.941775-70.463842 79.234599-138.254807 149.775188-138.254807 70.53445 0 136.465045 79.221296 138.249691 149.773142C658.05854 532.172435 561.842175 577.822125 517.468548 577.822125L517.468548 577.822125zM517.468548 577.822125" p-id="2038"></path></svg>