<?xml version="1.0" standalone="no"?><!DOCTYPE svg PUBLIC "-//W3C//DTD SVG 1.1//EN" "http://www.w3.org/Graphics/SVG/1.1/DTD/svg11.dtd"><svg t="1530330173909" class="icon" style="" viewBox="0 0 1024 1024" version="1.1" xmlns="http://www.w3.org/2000/svg" p-id="3400" xmlns:xlink="http://www.w3.org/1999/xlink" width="200" height="200"><defs><style type="text/css"></style></defs><path d="M960 960h-67.2c0-76.4-45.2-142.5-110.2-172.7-23.7-11.2-50-17.5-77.7-17.9-0.9 0-1.8 0.2-2.7 0.2v-0.4h-22.8C634.5 729.7 576.1 706 512 706c-6.3 0-12.3 0.2-18.4 0.7V702H703c0.7 0.2 1.1 0.2 1.8 0.2 103.9-1.6 187.9-86.5 187.9-190.6 0-54.4-22.8-103.5-59.8-138.2-20.6-19.7-45.5-34.7-73.2-43.5-5.8-26.7-15.9-51.7-29.3-74.6 30.2 3.4 58.9 11.9 85.1 24.9C901.1 322 960 410.1 960 511.6c0 96.1-52.9 179.9-130.8 224.2C907.1 780.1 960 863.9 960 960zM426.2 702v19c-30.2 10.8-57.8 27.3-81.5 48.2h-22.8v0.4c-0.9 0-1.8-0.2-2.7-0.2-27.8 0.4-54 6.7-77.7 17.9-65 30.2-110.2 96.3-110.2 172.7H64c0-96.1 52.9-179.9 130.8-224.2C116.9 691.4 64 607.6 64 511.6c0-101.7 58.9-189.5 144.5-231.4v-0.2c26.2-12.8 55.1-21.5 85.3-24.6-13.7 22.8-23.7 47.9-29.6 74.6-27.8 8.7-52.6 23.7-73.2 43.5-37 34.7-59.8 83.8-59.8 138.2 0 104.2 84 189.1 187.9 190.6 0.4 0 1.1 0 1.6-0.2h105.5z" fill="#A6CBDD" p-id="3401"></path><path d="M833 373.3c-1.1-32.5-7.2-63.8-17.5-93.2C771.8 154.5 652.2 64 512 64s-259.8 90.3-303.5 215.9v0.2c-10.3 29.3-16.4 60.5-17.5 93.2-0.2 4-0.2 7.8-0.2 11.9 0 170.9 134.2 311.1 302.8 320.5 6 0.4 12.3 0.7 18.4 0.7 17.9 0 35.6-1.6 52.9-4.5 151.9-25.3 268.4-157.7 268.4-316.7-0.1-4-0.1-7.8-0.3-11.9zM512 639.2c-140 0-254-114-254-254 0-19 2-37.6 6.3-55.3 5.8-26.7 15.9-51.7 29.6-74.6 44.4-74.4 125.7-124.1 218.2-124.1 92.5 0 173.8 49.7 218.4 124.1 13.4 22.8 23.5 47.9 29.3 74.6 4.3 17.7 6.3 36.3 6.3 55.3-0.1 140-114.1 254-254.1 254z" fill="#60A9D1" p-id="3402"></path><path d="M833.2 960H766c0-75.9-33.6-144.3-86.7-190.8C634.5 729.7 576.1 706 512 706c-6.3 0-12.3 0.2-18.4 0.7-23.5 1.6-46.1 6.5-67.4 14.3-30.2 10.8-57.8 27.3-81.5 48.2C291.6 815.7 258 884.1 258 960h-67.2c0-63.6 18.6-122.8 50.6-172.7 21.1-32.9 47.9-62 79.3-85.3 53.5-39.6 119.8-63.2 191.3-63.2 71.5 0 137.5 23.5 191.1 63.2 31.4 23.3 58.5 52.4 79.5 85.3 32 49.9 50.6 109.1 50.6 172.7z" fill="#60A9D1" p-id="3403"></path><path d="M391.7 338.5m-38 0a38 38 0 1 0 76 0 38 38 0 1 0-76 0Z" fill="#60A9D1" p-id="3404"></path><path d="M632.2 338.5m-38 0a38 38 0 1 0 76 0 38 38 0 1 0-76 0Z" fill="#60A9D1" p-id="3405"></path><path d="M512 563.8c-35 0-67.6-18.8-85.2-49.1-4.6-8-1.9-18.3 6.1-23 8.1-4.6 18.3-1.9 23 6.1 11.6 20 33.1 32.4 56.1 32.4s44.5-12.4 56.1-32.4c4.6-8 14.9-10.8 22.9-6.1 8 4.6 10.8 14.9 6.1 22.9-17.5 30.4-50.2 49.2-85.1 49.2z" fill="#60A9D1" p-id="3406"></path></svg>