<?xml version="1.0" standalone="no"?><!DOCTYPE svg PUBLIC "-//W3C//DTD SVG 1.1//EN" "http://www.w3.org/Graphics/SVG/1.1/DTD/svg11.dtd"><svg t="1529220746707" class="icon" style="" viewBox="0 0 1024 1024" version="1.1" xmlns="http://www.w3.org/2000/svg" p-id="1897" xmlns:xlink="http://www.w3.org/1999/xlink" width="200" height="200"><defs><style type="text/css"></style></defs><path d="M768 0 256 0C220.8 0 192 28.8 192 64l0 896c0 35.2 28.8 64 64 64l512 0c35.2 0 64-28.8 64-64L832 64C832 28.8 803.2 0 768 0zM656 32C665.6 32 672 38.4 672 48S665.6 64 656 64 640 57.6 640 48 646.4 32 656 32zM464 32l96 0C569.6 32 576 38.4 576 48 576 57.6 569.6 64 560 64l-96 0C454.4 64 448 57.6 448 48 448 38.4 454.4 32 464 32zM512 992c-25.6 0-48-22.4-48-48S486.4 896 512 896s48 22.4 48 48S537.6 992 512 992zM768 832c0 19.2-12.8 32-32 32L288 864c-19.2 0-32-12.8-32-32L256 128c0-19.2 12.8-32 32-32l448 0c19.2 0 32 12.8 32 32L768 832z" p-id="1898"></path><path d="M480 640 352 640c-16 0-32 12.8-32 32 0 19.2 12.8 32 32 32l128 0c16 0 32-12.8 32-32C512 652.8 499.2 640 480 640z" p-id="1899"></path><path d="M672 448 352 448c-16 0-32 12.8-32 32 0 19.2 12.8 32 32 32l320 0c16 0 32-12.8 32-32C704 460.8 691.2 448 672 448z" p-id="1900"></path><path d="M352 320l192 0c16 0 32-12.8 32-32 0-19.2-12.8-32-32-32L352 256C336 256 320 268.8 320 288 320 307.2 332.8 320 352 320z" p-id="1901"></path></svg>