<?xml version="1.0" standalone="no"?><!DOCTYPE svg PUBLIC "-//W3C//DTD SVG 1.1//EN" "http://www.w3.org/Graphics/SVG/1.1/DTD/svg11.dtd"><svg t="1530612347959" class="icon" style="" viewBox="0 0 1262 1024" version="1.1" xmlns="http://www.w3.org/2000/svg" p-id="1954" xmlns:xlink="http://www.w3.org/1999/xlink" width="246.484375" height="200"><defs><style type="text/css"></style></defs><path d="M854.806706 309.749675a396.718509 396.718509 0 0 1 43.177228 2.662311C859.312156 133.115563 666.806573 0 447.131762 0 201.379954 0 0 166.599247 0 378.321256c0 122.159128 66.933236 222.473651 178.852705 300.363321L134.173661 812.346255l156.291324-77.923802a773.196627 773.196627 0 0 0 156.530248 22.220059c14.062465 0 27.954268-0.61438 41.675411-1.638345a332.037999 332.037999 0 0 1-13.652878-93.317423c0-194.348722 167.725609-352.073598 379.959601-352.073598z m-240.256524-120.589047a55.601347 55.601347 0 1 1 0 111.168561 62.598447 62.598447 0 0 1-67.0015-55.635479 62.291257 62.291257 0 0 1 67.0015-55.533082zM301.762741 300.363321a62.80324 62.80324 0 0 1-67.342822-55.635479 62.632579 62.632579 0 0 1 67.342822-55.533082 55.601347 55.601347 0 1 1 0 111.168561zM1262.891237 656.49865c0-177.862871-178.852705-322.788174-379.754808-322.788174-212.711843 0-380.130262 145.027699-380.130263 322.788174 0 178.30659 167.486684 322.788174 380.130263 322.788174a563.38602 563.38602 0 0 0 134.105396-22.22006L1139.844672 1023.965868l-33.620213-111.236826c89.733542-67.069764 156.666778-155.915869 156.666778-256.230392zM759.850938 600.726642a44.440119 44.440119 0 1 1 0-88.914369 50.925236 50.925236 0 0 1 55.976801 44.371854 50.720443 50.720443 0 0 1-55.976801 44.371854z m245.751809 0a44.440119 44.440119 0 0 1 0-88.914369 51.198293 51.198293 0 0 1 55.9768 44.371854 50.925236 50.925236 0 0 1-55.9768 44.371854z m0 0" p-id="1955"></path></svg>