<?xml version="1.0" standalone="no"?><!DOCTYPE svg PUBLIC "-//W3C//DTD SVG 1.1//EN" "http://www.w3.org/Graphics/SVG/1.1/DTD/svg11.dtd"><svg t="1532343971981" class="icon" style="" viewBox="0 0 1024 1024" version="1.1" xmlns="http://www.w3.org/2000/svg" p-id="1925" xmlns:xlink="http://www.w3.org/1999/xlink" width="200" height="200"><defs><style type="text/css"></style></defs><path d="M679.127 139.572L783.29 243.735 576.795 450.142 406.587 322.818c-0.467-0.378-1.107-0.494-1.6-0.758-1.775-1.193-3.728-1.947-5.733-2.765-1.774-0.608-3.317-1.396-5.15-1.771-1.98-0.351-3.87-0.29-5.907-0.205-1.949-0.086-3.781-0.174-5.76 0.175-1.775 0.348-3.434 1.194-5.123 1.835-2.033 0.755-3.986 1.539-5.905 2.792-0.495 0.32-1.047 0.29-1.453 0.669l-265.56 197.85c-13.559 10.125-16.412 29.243-6.229 42.83a30.521 30.521 0 0 0 26.13 12.278c5.849-0.261 11.638-2.298 16.7-5.963L388.142 385.55 561.29 515.083c1.6 1.282 3.432 1.863 5.237 2.678 1.136 0.466 2.182 1.221 3.374 1.6a29.117 29.117 0 0 0 11.38 1.774h0.028c3.985-0.233 7.912-1.337 11.579-3.17 1.25-0.555 2.27-1.572 3.403-2.327 1.659-1.107 3.521-1.923 5.005-3.434l225.29-225.174 105.359 105.357V139.572H679.127zM157.29 854.633c0 16.469 13.325 29.795 29.799 29.795h29.79c16.468 0 29.795-13.326 29.795-29.795V644.765l-89.384 66.628v143.24z m444.648-189.444c-1.107 0.756-2.125 1.774-3.377 2.327-3.695 1.835-7.623 2.97-11.607 3.174l-0.03 0.028a29.701 29.701 0 0 1-11.376-1.804c-0.41-0.119-0.757-0.351-1.136-0.554v186.272c0 16.469 13.324 29.795 29.795 29.795h29.791c16.471 0 29.797-13.326 29.797-29.795v-249.7l-56.856 56.825c-1.483 1.513-3.315 2.356-5.001 3.432z" p-id="1926"></path><path d="M782.971 854.633c0 16.469 13.326 29.795 29.796 29.795h29.792c16.47 0 29.795-13.326 29.795-29.795V396.488l-89.384 89.353v368.792zM365.852 555.935v298.699c0 16.469 13.324 29.795 29.795 29.795h29.792c16.47 0 29.794-13.326 29.794-29.795v-273.56l-61.42-45.972-27.961 20.833z" p-id="1927"></path></svg>